
<svg width="100" height="100" viewBox="0 0 100 100" xmlns="http://www.w3.org/2000/svg" fill="none" stroke="#8A4D76" stroke-width="2" stroke-linecap="round" stroke-linejoin="round">
  <!-- Ruka -->
  <path d="M30 70 Q32 60 35 55 Q37 50 40 45 Q42 40 45 35 Q50 30 55 35 Q60 40 65 50 Q67 55 70 60 Q72 65 73 70 Z" fill="#FDECEF" stroke="#8A4D76"/>

  <!-- Nehty -->
  <path d="M43 32 Q44 30 46 31 Q47 33 46 35 Q45 36 43 35 Q42 34 43 32 Z" fill="#FBAED2"/>
  <path d="M49 33 Q50 31 52 32 Q53 34 52 36 Q51 37 49 36 Q48 35 49 33 Z" fill="#FBAED2"/>
  <path d="M55 36 Q56 34 58 35 Q59 37 58 39 Q57 40 55 39 Q54 38 55 36 Z" fill="#FBAED2"/>
  <path d="M60 40 Q61 38 63 39 Q64 41 63 43 Q62 44 60 43 Q59 42 60 40 Z" fill="#FBAED2"/>

  <!-- Popis -->
  <text x="50%" y="95" font-size="10" text-anchor="middle" fill="#8A4D76" font-family="Arial, sans-serif">Gelové nehty</text>
</svg>
